<svg width="16" height="17" viewBox="0 0 16 17" fill="none" xmlns="http://www.w3.org/2000/svg">
<g clip-path="url(#clip0_173_1401)">
<path d="M12.2363 2.40624C12.8569 2.40624 13.4624 2.40624 14.093 2.40624C14.093 3.03182 14.093 3.6474 14.093 4.27799C14.7236 4.31302 15.2391 4.55325 15.6144 5.04371C15.8797 5.38403 16.0048 5.77439 15.9998 6.2048C15.9798 7.1707 15.3292 7.8113 14.103 8.06654C14.103 8.35181 14.103 8.64208 14.103 8.95738C13.2322 8.95738 12.3764 8.95738 11.4756 8.95738C11.5606 9.21762 11.6457 9.43783 11.7058 9.66804C11.8409 10.1635 11.5706 10.659 11.1002 10.8041C10.5947 10.9593 10.0642 10.714 9.92911 10.2035C9.86905 9.97833 9.92911 9.71809 9.96915 9.47787C9.99417 9.31771 10.0742 9.16757 10.1393 8.9774C9.26348 8.9774 8.41769 8.9774 7.55188 8.9774C7.55188 8.49695 7.55188 8.04652 7.55188 7.57108C8.14744 7.53605 8.65291 7.30082 9.01825 6.81537C9.28851 6.45503 9.40862 6.04965 9.39361 5.59923C9.36358 4.65835 8.73299 4.03276 7.54688 3.78253C7.54688 3.3321 7.54688 2.87668 7.54688 2.40123C7.84716 2.40123 8.13743 2.40123 8.44271 2.40123C8.50277 1.75062 8.743 1.21512 9.2785 0.839768C9.62883 0.589533 10.0242 0.474425 10.4546 0.499449C11.4005 0.559505 12.0361 1.23013 12.2363 2.40624Z" fill="#4F4F4F"/>
<path d="M0 9.91274C0.865812 9.91274 1.73162 9.91274 2.62746 9.91274C2.55239 9.68253 2.48233 9.48234 2.41727 9.27715C2.28214 8.86676 2.41226 8.46138 2.75258 8.21115C3.06287 7.98594 3.50328 7.98093 3.82859 8.20114C4.1639 8.43135 4.30904 8.82672 4.19393 9.2321C4.13388 9.44731 4.0538 9.6575 3.97373 9.89272C4.84955 9.89272 5.70535 9.89272 6.57616 9.89272C6.57616 10.3682 6.57616 10.8236 6.57616 11.294C5.99062 11.3491 5.48014 11.5543 5.10979 12.0347C4.83453 12.3901 4.6894 12.7954 4.70441 13.2409C4.73444 14.0316 5.28996 14.9825 6.59118 15.0726C6.59118 15.3078 6.59118 15.548 6.59118 15.7882C6.59118 16.0185 6.59118 16.2537 6.59118 16.4839C3.203 16.3438 0.180169 13.436 0 9.91274Z" fill="#4F4F4F"/>
<path d="M6.59118 2.45703C6.59118 3.31283 6.59118 4.15362 6.59118 5.02944C6.80638 4.95437 6.99156 4.88431 7.17673 4.81925C7.59712 4.67911 8.02252 4.81424 8.28777 5.16957C8.51799 5.48487 8.51799 5.89525 8.28777 6.22056C8.03754 6.57089 7.60713 6.70601 7.18173 6.56588C6.99156 6.50583 6.80638 6.44077 6.59619 6.3707C6.59619 7.24652 6.59619 8.09231 6.59619 8.95813C6.12574 8.95813 5.67032 8.95813 5.21989 8.95813C4.87457 7.61687 4.19894 7.02631 3.10791 7.1164C2.19706 7.19147 1.51642 7.93216 1.42634 8.95312C0.960902 8.95312 0.490461 8.95312 0.0200195 8.95312C0.0850805 5.82018 2.92274 2.62219 6.59118 2.45703Z" fill="#4F4F4F"/>
<path d="M7.53213 16.5C7.53213 15.6242 7.53213 14.7634 7.53213 13.8725C7.30191 13.9476 7.10172 14.0177 6.90153 14.0777C6.49115 14.2078 6.07576 14.0677 5.82052 13.7174C5.59531 13.4071 5.59031 13.0067 5.81051 12.6914C6.04573 12.3511 6.46613 12.196 6.8665 12.3111C7.0817 12.3711 7.2869 12.4512 7.53213 12.5313C7.53213 11.6454 7.53213 10.7896 7.53213 9.92383C8.01258 9.92383 8.468 9.92383 8.91843 9.92383C9.12362 11.1149 9.79925 11.7906 10.8002 11.8006C11.7961 11.8106 12.4868 11.135 12.717 9.92383C13.1524 9.92383 13.5928 9.92383 14.0332 9.92383C14.0082 12.8265 11.4158 16.2748 7.53213 16.5Z" fill="#4F4F4F"/>
</g>
<defs>
<clipPath id="clip0_173_1401">
<rect width="16" height="16" fill="white" transform="translate(0 0.5)"/>
</clipPath>
</defs>
</svg>
