<svg width="28" height="27" viewBox="0 0 28 27" fill="none" xmlns="http://www.w3.org/2000/svg">
<path fill-rule="evenodd" clip-rule="evenodd" d="M7.72695 3.81341C7.72695 1.71257 5.99721 0.00953743 3.86348 0.00953753C1.72974 0.00953762 -2.58099e-07 1.71257 -1.66269e-07 3.81341C-7.4442e-08 5.91415 1.72974 7.61719 3.86348 7.61719C5.99721 7.61719 7.72695 5.91415 7.72695 3.81341Z" fill="#FF2D46"/>
<path fill-rule="evenodd" clip-rule="evenodd" d="M17.8632 3.81341C17.8632 1.71257 16.1335 0.00953743 13.9998 0.00953753C11.8659 0.00953762 10.1362 1.71257 10.1362 3.81341C10.1362 5.91415 11.8659 7.61719 13.9998 7.61719C16.1335 7.61719 17.8632 5.91415 17.8632 3.81341Z" fill="#D53D5C"/>
<path fill-rule="evenodd" clip-rule="evenodd" d="M27.9999 3.81341C27.9999 1.71257 26.2702 0.00953743 24.1365 0.00953753C22.0027 0.00953762 20.2729 1.71257 20.2729 3.81341C20.2729 5.91415 22.0027 7.61719 24.1365 7.61719C26.2702 7.61719 27.9999 5.91415 27.9999 3.81341Z" fill="#815EAD"/>
<path fill-rule="evenodd" clip-rule="evenodd" d="M17.8632 13.5009C17.8632 11.4001 16.1335 9.69704 13.9998 9.69704C11.8659 9.69704 10.1362 11.4001 10.1362 13.5009C10.1362 15.6017 11.8659 17.3047 13.9998 17.3047C16.1335 17.3047 17.8632 15.6017 17.8632 13.5009Z" fill="#AB4D85"/>
<path fill-rule="evenodd" clip-rule="evenodd" d="M27.9999 13.5009C27.9999 11.4001 26.2702 9.69704 24.1364 9.69704C22.0027 9.69704 20.2729 11.4001 20.2729 13.5009C20.2729 15.6017 22.0027 17.3047 24.1364 17.3047C26.2702 17.3047 27.9999 15.6017 27.9999 13.5009Z" fill="#576ED6"/>
<path fill-rule="evenodd" clip-rule="evenodd" d="M27.9999 23.1864C27.9999 21.0856 26.2702 19.3826 24.1365 19.3826C22.0027 19.3826 20.2729 21.0856 20.2729 23.1864C20.2729 25.2872 22.0027 26.9902 24.1365 26.9902C26.2702 26.9902 27.9999 25.2872 27.9999 23.1864Z" fill="#2388FF"/>
</svg>
