<svg width="123" height="24" viewBox="0 0 123 24" fill="none" xmlns="http://www.w3.org/2000/svg">
<path d="M5.42822 14.8306V23H0.191406V1.00537H8.86035C10.7939 1.00537 12.271 1.21484 13.2915 1.63379C14.3228 2.04199 15.2412 2.77783 16.0469 3.84131C16.8525 4.90479 17.2554 6.20996 17.2554 7.75684C17.2554 8.8418 17.0405 9.8999 16.6108 10.9312C16.1812 11.9624 15.5742 12.7734 14.79 13.3643C14.0059 13.9551 13.2432 14.3472 12.502 14.5405C11.7715 14.7339 10.6221 14.8306 9.05371 14.8306H5.42822ZM5.25098 10.8345H8.60254C9.88086 10.8345 10.7778 10.5391 11.2935 9.94824C11.8091 9.35742 12.0669 8.68066 12.0669 7.91797C12.0669 7.02637 11.7769 6.31738 11.1968 5.79102C10.6274 5.26465 9.75732 5.00146 8.58643 5.00146H5.25098V10.8345ZM25.312 14.2827V23H20.1235V1.00537H29.7915C31.5747 1.00537 33.0034 1.21484 34.0776 1.63379C35.1626 2.04199 36.0596 2.79932 36.7686 3.90576C37.4775 5.01221 37.832 6.24219 37.832 7.5957C37.832 10.2383 36.5591 12.1343 34.0132 13.2837L38.0737 23H32.3857L29.002 14.2827H25.312ZM25.312 4.9209V10.5283H28.4702C29.5015 10.5283 30.248 10.4585 30.71 10.3188C31.1826 10.1685 31.6016 9.84619 31.9668 9.35205C32.332 8.84717 32.5146 8.27246 32.5146 7.62793C32.5146 7.01562 32.332 6.46777 31.9668 5.98438C31.6016 5.50098 31.2041 5.20557 30.7744 5.09814C30.3447 4.97998 29.5391 4.9209 28.3574 4.9209H25.312ZM49.627 23.3384C46.6621 23.3384 44.3687 22.2266 42.7466 20.0029C41.1245 17.7793 40.3135 15.0884 40.3135 11.9302C40.3135 8.71826 41.1353 6.03809 42.7788 3.88965C44.4224 1.74121 46.7642 0.666992 49.8042 0.666992C52.8765 0.666992 55.1914 1.81641 56.749 4.11523C58.3174 6.40332 59.1016 9.02441 59.1016 11.9785C59.1016 15.1689 58.2959 17.8599 56.6846 20.0513C55.0732 22.2427 52.7207 23.3384 49.627 23.3384ZM49.772 4.87256C47.0649 4.87256 45.7114 7.24658 45.7114 11.9946C45.7114 16.7534 47.0649 19.1328 49.772 19.1328C52.3931 19.1328 53.7036 16.7588 53.7036 12.0107C53.7036 7.25195 52.3931 4.87256 49.772 4.87256Z" fill="#FF2D46"/>
<path d="M78.1152 5.35596H67.8188V10.2866H75.9561V14.3955H67.8188V23H62.4692V1.00537H78.1152V5.35596ZM85.9141 1.00537V23H80.7739V1.00537H85.9141ZM95.5659 18.6494H104.315V23H90.3452V1.00537H95.5659V18.6494ZM122.685 5.19482H112.195V9.70654H120.445V13.8477H112.195V18.6494H122.685V23H106.958V1.00537H122.685V5.19482Z" fill="#2388FF"/>
</svg>
